<svg width="55" height="57" viewBox="0 0 55 57" fill="none" xmlns="http://www.w3.org/2000/svg">
<g id="fingerprint 1" clip-path="url(#clip0_102_69)">
<g id="Group">
<path id="Vector" d="M46.9333 11.438C46.5185 11.438 46.106 11.286 45.776 10.9725C40.7183 6.194 34.2283 3.5625 27.5 3.5625C20.7716 3.5625 14.2816 6.194 9.22392 10.9749C8.52038 11.6375 7.43413 11.5829 6.79475 10.8585C6.15538 10.1318 6.20579 9.00362 6.90704 8.341C12.6018 2.96162 19.9145 0 27.5 0C35.0854 0 42.3981 2.96162 48.0929 8.341C48.7941 9.00362 48.8445 10.1294 48.2052 10.8585C47.866 11.2432 47.4008 11.438 46.9333 11.438Z" fill="white"/>
<path id="Vector_2" d="M49.8437 23.078C49.2914 23.078 48.746 22.8025 48.416 22.2895C43.6448 14.927 35.8256 10.5308 27.5 10.5308C19.1743 10.5308 11.3552 14.927 6.58392 22.2895C6.05455 23.1088 4.98434 23.3273 4.1983 22.7763C3.40997 22.2277 3.19913 21.121 3.72851 20.304C9.13913 11.9558 18.0262 6.9707 27.5 6.9707C36.9737 6.9707 45.8608 11.9558 51.2714 20.3063C51.8008 21.1233 51.5923 22.2301 50.8016 22.7787C50.5083 22.9806 50.176 23.078 49.8437 23.078Z" fill="white"/>
<path id="Vector_3" d="M22.0709 57C21.6286 57 21.1863 56.8243 20.8495 56.4728C20.4736 56.0809 11.6667 46.7638 11.6667 37.7934C11.6667 28.4834 18.7686 20.9095 27.4999 20.9095C36.2311 20.9095 43.333 28.4834 43.333 37.7934C43.333 38.7767 42.563 39.5747 41.6143 39.5747C40.6655 39.5747 39.8955 38.7767 39.8955 37.7934C39.8955 30.4475 34.3359 24.472 27.4999 24.472C20.6638 24.472 15.1042 30.4475 15.1042 37.7934C15.1042 45.315 23.2099 53.8793 23.2924 53.9648C23.9615 54.663 23.957 55.7912 23.2809 56.4847C22.9463 56.829 22.5086 57 22.0709 57Z" fill="white"/>
<path id="Vector_4" d="M32.929 57C28.7949 57 19.2111 48.849 18.283 39.7717C17.9553 36.5631 18.9407 33.2808 20.9161 30.9913C22.6349 29.0011 24.9563 27.8967 27.4519 27.8825H27.5001C29.9338 27.8825 32.2346 28.8728 33.9855 30.6755C35.8142 32.5588 36.8203 35.0882 36.8203 37.7957V38.9571C36.8203 41.819 38.9699 44.1465 41.6144 44.1465C44.259 44.1465 46.4109 41.819 46.4109 38.9571V38.551C46.4109 27.4597 38.6582 18.2328 28.7605 17.5488C23.5996 17.1855 18.6497 19.0332 14.8294 22.7335C10.8649 26.5762 8.59153 32.0672 8.59153 37.7957C8.59153 42.5077 10.1315 47.0986 12.9274 50.7228C13.5186 51.4923 13.3994 52.611 12.6569 53.2261C11.9167 53.8412 10.8351 53.7153 10.2392 52.9458C6.95986 48.6922 5.15173 43.3105 5.15173 37.7933C5.15173 31.0816 7.82382 24.643 12.4782 20.1305C16.9997 15.7462 22.8617 13.566 28.9851 13.9911C40.6817 14.801 49.8461 25.5882 49.8461 38.5486V38.9547C49.8461 43.7807 46.1519 47.7066 41.6121 47.7066C37.0724 47.7066 33.3805 43.7807 33.3805 38.9547V37.7933C33.3805 36.0406 32.7342 34.4113 31.5609 33.2001C30.4609 32.0648 29.0194 31.4426 27.5001 31.4426C27.4886 31.4426 27.4794 31.4426 27.468 31.4426C25.5315 31.4521 24.2276 32.4947 23.4759 33.3663C22.1353 34.9172 21.4707 37.1735 21.6976 39.3965C22.4561 46.8017 30.6671 53.4398 32.9267 53.4398C33.8755 53.4398 34.6455 54.2378 34.6455 55.2211C34.6455 56.2043 33.8778 57 32.929 57Z" fill="white"/>
<path id="Vector_5" d="M39.3066 53.516C33.1558 53.516 25.646 45.726 25.646 36.6321C25.646 35.6488 26.416 34.8508 27.3647 34.8508C28.3135 34.8508 29.0835 35.6488 29.0835 36.6321C29.0835 43.6811 34.8012 49.9535 39.3066 49.9535C40.2554 49.9535 41.0254 50.7515 41.0254 51.7347C41.0254 52.718 40.2554 53.516 39.3066 53.516Z" fill="white"/>
</g>
</g>
<defs>
<clipPath id="clip0_102_69">
<rect width="55" height="57" fill="white"/>
</clipPath>
</defs>
</svg>
