<svg width="39" height="39" viewBox="0 0 39 39" fill="none" xmlns="http://www.w3.org/2000/svg">
<g id="linkedin 1" clip-path="url(#clip0_102_33)">
<g id="Group">
<path id="Vector" d="M19.5 38.999C30.2696 38.999 39 30.2686 39 19.499C39 8.72947 30.2696 -0.000976562 19.5 -0.000976562C8.73045 -0.000976562 0 8.72947 0 19.499C0 30.2686 8.73045 38.999 19.5 38.999Z" fill="#007AB9"/>
<g id="Group_2">
<path id="Vector_2" d="M31.151 21.0688V29.1082H26.4899V21.6076C26.4899 19.7242 25.817 18.4381 24.1294 18.4381C22.8415 18.4381 22.0764 19.304 21.7385 20.1424C21.6158 20.442 21.5842 20.8581 21.5842 21.2784V29.1078H16.9228C16.9228 29.1078 16.9854 16.4042 16.9228 15.0892H21.5845V17.0758C21.5751 17.0915 21.5619 17.1068 21.5536 17.1217H21.5845V17.0758C22.204 16.1227 23.3087 14.7601 25.7853 14.7601C28.8519 14.7601 31.151 16.7637 31.151 21.0688ZM12.0466 8.33179C10.4521 8.33179 9.40894 9.37843 9.40894 10.7536C9.40894 12.0995 10.4219 13.1764 11.9854 13.1764H12.0156C13.6414 13.1764 14.6522 12.0995 14.6522 10.7536C14.6213 9.37843 13.6414 8.33179 12.0466 8.33179ZM9.68598 29.1082H14.3456V15.0892H9.68598V29.1082Z" fill="#F1F2F2"/>
</g>
</g>
</g>
<defs>
<clipPath id="clip0_102_33">
<rect width="39" height="39" fill="white"/>
</clipPath>
</defs>
</svg>
