<svg width="39" height="39" viewBox="0 0 39 39" fill="none" xmlns="http://www.w3.org/2000/svg">
<g id="pinterest 1" clip-path="url(#clip0_102_28)">
<g id="Group">
<path id="Vector" d="M19.5001 39.0003C30.2695 39.0003 38.9998 30.27 38.9998 19.5006C38.9998 8.73127 30.2695 0.000976562 19.5001 0.000976562C8.73078 0.000976562 0.000488281 8.73127 0.000488281 19.5006C0.000488281 30.27 8.73078 39.0003 19.5001 39.0003Z" fill="#CB2027"/>
<g id="Group_2">
<path id="Vector_2" d="M21.074 26.1123C19.5998 25.9983 18.9804 25.2673 17.8243 24.5655C17.1888 27.8993 16.4123 31.0951 14.1122 32.7647C13.4014 27.7259 15.1543 23.9412 15.9684 19.924C14.5808 17.5881 16.1353 12.8865 19.0621 14.045C22.6642 15.4695 15.9434 22.7305 20.4552 23.6374C25.1656 24.5843 27.0885 15.4643 24.1673 12.4979C19.9467 8.21509 11.882 12.4005 12.8737 18.5315C13.1153 20.0303 14.6642 20.4854 13.4925 22.5536C10.7913 21.9554 9.98554 19.8249 10.0891 16.9847C10.2563 12.3355 14.2666 9.08026 18.289 8.62977C23.3761 8.0604 28.1508 10.4978 28.8098 15.2828C29.5512 20.6835 26.5132 26.5322 21.074 26.1123Z" fill="#F1F2F2"/>
</g>
</g>
</g>
<defs>
<clipPath id="clip0_102_28">
<rect width="39" height="39" fill="white"/>
</clipPath>
</defs>
</svg>
